<svg width="129" height="128" viewBox="0 0 129 128" fill="none" xmlns="http://www.w3.org/2000/svg">
<path d="M78.5924 104.264C78.1792 103.871 36.07 105.024 36.1566 103.858C36.0634 102.692 78.1859 103.845 78.5924 103.452C79.1055 103.445 79.1321 104.278 78.5924 104.264Z" fill="#05195A" stroke="#05195A" stroke-width="0.5"/>
<path d="M78.5924 97.6276C78.1793 97.2344 36.0701 98.3872 36.1567 97.221C36.0634 96.0548 78.1859 97.2077 78.5924 96.8145C79.1055 96.8079 79.1322 97.6342 78.5924 97.6276Z" fill="#05195A" stroke="#05195A" stroke-width="0.5"/>
<path d="M53.643 100.739H36.5634C36.3369 100.739 36.157 100.559 36.157 100.333C36.157 100.106 36.3369 99.9263 36.5634 99.9263H53.643C54.1695 99.9196 54.1761 100.753 53.643 100.739Z" fill="#05195A" stroke="#05195A" stroke-width="0.5"/>
<path d="M75.5536 100.739H58.474C58.2474 100.739 58.0675 100.559 58.0675 100.333C58.0675 100.106 58.2474 99.9263 58.474 99.9263H75.5536C76.0734 99.9196 76.0867 100.753 75.5536 100.739Z" fill="#05195A" stroke="#05195A" stroke-width="0.5"/>
<path d="M97.2444 100.739H79.3651C79.1386 100.739 78.9586 100.559 78.9586 100.333C78.9586 100.106 79.1386 99.9263 79.3651 99.9263H97.2444C97.7708 99.9196 97.7775 100.753 97.2444 100.739Z" fill="#05195A" stroke="#05195A" stroke-width="0.5"/>
<path d="M97.3909 97.6273H84.0831C83.8565 97.6273 83.6766 97.4473 83.6766 97.2207C83.6766 96.9942 83.8565 96.8142 84.0831 96.8142H97.3842C97.9173 96.8076 97.924 97.6339 97.3909 97.6273Z" fill="#05195A" stroke="#05195A" stroke-width="0.5"/>
<path d="M97.3909 104.151H84.0831C83.8565 104.151 83.6766 103.971 83.6766 103.745C83.6766 103.518 83.8565 103.338 84.0831 103.338H97.3842C97.9173 103.325 97.924 104.158 97.3909 104.151Z" fill="#05195A" stroke="#05195A" stroke-width="0.5"/>
<path d="M73.3016 108.929L70.9359 106.79L68.6568 108.929V100.673H73.3016V108.929Z" fill="#05195A" stroke="#05195A" stroke-width="0.5"/>
<path d="M97.5712 105.977H39.6285C32.3382 105.844 32.3649 95.0217 39.6285 94.9018H97.5712C98.9573 94.9018 100.083 93.7756 100.083 92.3895C100.083 91.0034 98.9573 89.8772 97.5712 89.8772H39.6285C33.8043 89.8772 29.0663 94.6152 29.0663 100.439C29.0663 106.264 33.8043 111.002 39.6285 111.002H97.5712C100.89 110.942 100.85 106.03 97.5712 105.977ZM97.5712 109.676H39.6285C27.4803 109.456 27.5069 91.4166 39.6285 91.2033H97.5712C98.2242 91.2033 98.7574 91.7364 98.7574 92.3895C98.7574 93.0425 98.2242 93.5757 97.5712 93.5757H39.6285C35.8435 93.5757 32.7647 96.6544 32.7647 100.439C32.7647 104.225 35.8435 107.303 39.6285 107.303H97.5712C99.1439 107.317 99.1039 109.662 97.5712 109.676Z" fill="#05195A" stroke="#05195A" stroke-width="0.5"/>
<path d="M70.6558 35.7396C71.0557 35.0799 70.1161 34.1069 69.3964 34.3668C68.7766 34.5334 67.917 34.5334 67.2773 34.74C65.2381 35.1732 65.1448 36.8392 67.2306 36.9324C68.3635 36.9258 70.1494 36.5059 70.6558 35.7396ZM66.6509 35.9462C66.6442 35.9395 66.6375 35.9395 66.6375 35.9329C66.9307 35.7063 68.0503 35.3931 68.63 35.3664C69.0032 35.3997 69.6562 35.0199 69.8228 35.3331C69.2497 35.9129 67.2906 36.2394 66.6509 35.9462Z" fill="#05195A" stroke="#05195A" stroke-width="0.5"/>
<path d="M69.7698 36.5859C69.6632 36.5726 69.5632 36.5992 69.4766 36.6592C67.8906 37.7454 68.0372 38.1319 68.1105 38.3385C68.1838 38.5317 68.377 38.745 68.8968 38.685C69.6698 38.5917 69.9497 38.8183 70.6294 38.8316C73.175 38.685 71.2958 36.6525 69.7698 36.5859ZM69.3966 37.7987C69.5299 37.6921 69.6765 37.5788 69.8297 37.4655C70.2629 37.5522 70.6494 37.7721 70.856 37.9453C70.3096 38.0186 69.983 37.812 69.3966 37.7987Z" fill="#05195A" stroke="#05195A" stroke-width="0.5"/>
<path d="M73.4347 37.4723C73.0215 37.1191 72.1885 37.5323 71.942 37.9921C71.7754 38.5919 72.3951 39.4715 73.2814 39.4382C74.7008 39.3582 73.6813 37.6323 73.4347 37.4723ZM72.8549 38.292C72.8883 38.2787 72.9215 38.2653 72.9549 38.252C73.0282 38.3586 73.0881 38.4719 73.1215 38.5586C73.0015 38.5452 72.9616 38.4719 72.8549 38.292Z" fill="#05195A" stroke="#05195A" stroke-width="0.5"/>
<path d="M87.5487 58.0638C91.1805 53.5524 93.3463 47.868 93.133 41.9239C92.8598 19.893 67.1238 10.0304 51.8701 22.4053C50.5773 20.9925 47.8052 18.3803 47.7585 18.2737C45.3728 15.968 41.881 19.4598 44.1867 21.8455C44.2133 21.8588 44.3999 22.0388 44.6865 22.332C28.3532 40.8976 40.928 71.1184 65.4445 72.791V85.5791H54.0293C53.6628 85.5791 53.3695 85.8789 53.3695 86.2388V90.1038C53.3695 90.4704 53.6694 90.7636 54.0293 90.7636H81.5045C81.871 90.7636 82.1642 90.4637 82.1642 90.1038V86.2388C82.1642 85.8723 81.8644 85.5791 81.5045 85.5791H70.0892V72.7844C76.5399 72.3246 82.8839 69.6923 87.8286 65.4341C88.0418 65.6606 88.2617 65.8939 88.4949 66.1538C88.9881 66.6469 89.6345 66.8935 90.2809 66.8935C92.4466 66.9734 93.6728 64.0813 92.0668 62.5819L87.5487 58.0638ZM88.435 54.5653C80.1118 69.639 56.6215 70.1721 47.6386 55.4649C40.3483 44.6627 43.7535 30.9284 52.7231 23.5248C53.1496 23.5115 53.6961 23.6048 54.1026 24.0579C54.5624 24.5777 54.2291 25.5107 53.8693 26.4969C53.5094 27.3832 53.4095 28.1096 53.1963 29.0425C52.2633 32.5611 52.6231 34.5736 55.7419 36.3462C55.6885 38.0854 57.128 38.392 59.0072 38.6785C60.1934 38.8918 60.5998 38.9651 61.033 39.5382C61.926 40.7377 63.3121 42.8102 64.9314 42.4703C64.9581 42.9834 64.5049 43.903 64.4249 44.4161C64.265 45.7289 64.1517 50.8535 67.0905 50.8402C67.6769 50.9534 67.7702 51.0068 67.7835 51.1334C67.8168 51.4199 67.7569 51.893 67.6903 52.4328C67.3437 54.0655 67.517 56.6911 68.7898 58.0505C70.5091 60.2629 68.1301 63.5615 72.2084 64.2546C73.2013 64.2546 74.3275 63.5549 74.5874 63.3816C75.0072 63.1217 74.674 62.4353 74.2142 62.6086C73.901 62.7085 73.2812 62.8285 72.9547 62.6086C72.9014 62.5686 72.7348 62.462 72.7015 62.0621C72.6615 61.4624 72.4883 60.9893 72.3483 60.6094C72.0951 59.9164 72.0218 59.7098 72.7481 59.2033C76.6732 56.911 72.8681 55.4249 75.6603 54.2721C77.3196 53.6723 78.1526 54.2721 78.5991 51.7531C78.8256 50.6269 78.5991 49.9272 78.4325 49.4141C77.5528 47.6881 81.3979 46.7618 81.2513 45.549C81.038 44.836 79.6519 45.0625 79.0655 44.4361C77.7794 43.25 76.3666 44.716 75.0405 44.5294C75.0205 44.5161 75.0072 44.5094 74.9939 44.4695C74.614 43.4965 74.6274 41.7639 74.1876 41.5507C74.021 41.4707 72.6815 40.8843 71.9218 41.444C71.5553 40.8443 70.8156 39.6115 69.0097 39.998L66.5374 39.6581C66.4241 39.6448 66.3108 39.6715 66.2242 39.7381C65.6844 40.1379 64.6982 40.6377 64.2783 40.4578C63.6853 39.8181 64.2117 38.4786 62.819 37.9455C63.392 36.3595 62.1325 36.0463 60.2133 36.7393C59.2338 36.3795 58.634 36.1129 59.7802 35.3532C62.1126 33.7606 63.0655 33.7073 64.0384 35.1267C64.4782 35.7664 64.8181 36.1196 65.2446 36.0263C66.1309 35.6998 65.811 34.0338 66.2975 33.2008C66.9372 31.7081 67.4237 31.4149 68.33 30.8485C69.3829 30.1687 69.6428 28.7093 71.2021 28.8293C72.6682 28.9226 72.7615 27.6764 72.8081 27.01C72.8481 26.4503 72.8948 26.2903 73.008 26.277C74.0343 26.177 74.9472 24.811 74.9472 23.8114C74.9206 22.6785 74.2009 22.9784 73.5878 22.4986C75.2471 22.9917 74.9939 22.0787 75.8136 21.2991C76.2201 21.4324 76.9464 21.8722 77.3595 22.0454C77.4462 22.2387 77.5528 22.8118 77.6061 23.4049C76.7732 23.9646 74.4541 25.5107 75.8202 26.7502C77.193 27.7964 78.4658 26.6702 79.5653 26.2504C82.3775 25.404 82.4641 27.03 84.9698 26.3103C85.0897 26.337 85.283 26.2437 85.4695 26.0971C92.1268 33.594 94.2792 45.0426 88.435 54.5653ZM77.7261 21.2791C76.2467 20.5594 75.4204 19.7331 74.4141 21.7522C73.2079 21.8722 73.9077 20.9459 73.6611 20.3928C73.2413 19.8064 72.1817 18.5002 71.3487 19C70.6957 19.3865 69.9893 20.4528 69.4095 21.0325C68.3766 21.6589 66.5774 21.7855 65.5045 22.7385C63.7452 24.2645 66.3308 24.3911 67.2305 25.1375C68.5033 26.6369 69.6894 25.0442 71.1621 23.7447C73.148 22.0055 72.295 23.2716 73.9543 23.6248C74.0209 23.6315 74.0676 23.6381 74.0676 23.8247C73.6544 26.2837 71.9951 24.5644 71.9352 26.9567C71.8685 27.8497 71.7685 28.003 71.2488 27.9696C69.2629 27.8564 68.923 29.2691 67.8635 30.1221C66.4174 30.7085 65.1047 33.0342 64.9847 34.9667C63.4587 32.3878 61.3529 33.1275 59.2871 34.6469C58.5274 35.1666 58.1875 35.7064 58.2875 36.2529C58.4607 37.1858 59.8468 37.559 60.12 37.6256C60.2 37.6456 60.2867 37.639 60.36 37.6123C61.6461 37.1725 62.0259 37.2658 62.0992 37.2991C62.1126 37.4257 61.9593 37.7856 61.7261 38.0988C61.4662 38.4186 61.826 38.9118 62.2125 38.7718C62.2192 38.7718 62.4458 38.6985 62.6524 38.8318C62.9056 38.9917 63.0788 39.4182 63.1455 40.0313C63.3521 42.1904 65.7444 41.2042 66.584 40.5511L68.963 40.8776C70.1959 40.5711 70.8289 41.2175 71.1688 41.8972C71.4287 42.417 71.9418 42.8035 72.3883 42.1971C72.5282 41.9905 73.1347 42.0905 73.6078 42.2637C74.1276 44.8493 73.9277 46.2887 77.3862 44.9093C78.4658 44.5828 78.8523 45.7223 80.0651 45.8356C75.7669 48.9076 78.1126 48.4278 77.7394 51.5932C77.4129 52.7194 77.6528 52.9326 76.6665 53.1192C74.2475 53.4724 73.2346 54.7719 73.801 56.6044C74.1542 58.0838 70.2692 58.6036 71.5286 60.916C71.8352 61.5557 71.8019 63.1084 72.5082 63.3683C72.1284 63.4549 71.9018 63.355 71.6086 63.2084C70.8689 62.8618 70.3825 62.6286 70.3825 60.5961C70.3625 56.5978 67.6636 57.544 68.5499 52.5528C69.203 48.921 66.9639 50.9201 65.831 49.1808C65.1646 47.7414 65.1846 45.1558 65.2846 44.5694C65.5311 43.5765 66.4841 41.7306 64.9247 41.6173C63.7052 41.9572 62.4724 39.9913 61.7261 39.0317C60.9131 37.8589 59.3337 37.9522 57.881 37.5923C55.6952 37.1725 57.4811 36.1063 55.7085 35.2666C52.7165 33.7339 53.6827 30.8951 54.2825 28.1296C54.8023 26.197 56.255 23.6114 53.6627 22.7984C57.5544 19.8997 62.3791 18.1471 67.7636 18.227C74.614 18.1137 80.5916 20.9925 84.8764 25.4707C82.4774 26.1304 82.3841 24.5177 79.3187 25.444C78.3991 25.7572 77.093 26.8101 76.3533 26.1038C75.9468 25.564 77.5262 24.5244 78.2725 24.0379C78.4125 23.958 78.4924 23.798 78.4857 23.6381C78.3458 21.4857 77.906 21.3457 77.7261 21.2791ZM73.048 22.0987C72.0684 21.1925 69.3229 24.5111 68.4566 24.8909C68.3633 24.9176 68.27 24.9109 67.8035 24.4911C67.1971 23.958 66.5241 23.8247 65.8843 23.5648C66.8839 22.5053 69.023 22.4786 70.0226 21.6456C70.5491 21.1258 71.2221 20.1262 71.7686 19.7597C71.9618 19.793 72.4483 20.2395 72.8348 20.746C72.7748 21.0658 72.7215 21.6523 73.048 22.0987ZM45.9659 18.8534C46.6923 18.6135 50.2442 22.7985 50.8639 23.2649C50.2775 23.7914 49.711 24.3578 49.1646 24.9576L46.1192 21.9122L45.5661 21.359L45.113 20.9059C44.3599 20.1862 44.933 18.8201 45.9659 18.8534ZM80.8315 86.8985V89.4374H54.6823V86.8985H80.8315ZM66.764 85.5058V73.3042H68.7498V85.5058H66.764ZM83.8835 66.7335C57.6544 83.6399 26.7606 53.3591 43.0405 26.7968C43.8068 25.564 44.6798 24.3911 45.6261 23.2916C46.4924 24.1779 47.5653 25.2641 48.305 25.9438C47.5653 26.8368 46.8722 27.803 46.2258 28.8426C35.5769 45.2625 48.225 68.033 67.8035 67.6598C73.8144 67.7864 79.5253 65.4807 84.0035 61.6956C84.39 62.2487 85.3563 62.9685 86.889 64.4745C85.936 65.2942 84.9364 66.0472 83.8835 66.7335ZM91.1205 65.2075C90.674 65.674 89.8677 65.674 89.4212 65.2075L85.3429 61.1225L87.0422 59.4233L91.1205 63.5016C91.587 63.9547 91.587 64.761 91.1205 65.2075Z" fill="#05195A" stroke="#05195A" stroke-width="0.5"/>
</svg>
