<svg width="129" height="128" viewBox="0 0 129 128" fill="none" xmlns="http://www.w3.org/2000/svg">
<path d="M114.399 51.9778C114.387 51.5163 114.146 51.1144 113.748 50.9581C113.404 50.8687 106.364 48.0178 98.2148 44.7128C65.2185 31.3364 63.7224 30.8451 63.4872 31.0238L63.445 31.061C62.8417 31.4481 55.597 34.1427 47.9361 36.9862C18.2755 48.0104 13.2989 50.1765 13.4015 51.0176C13.3894 51.5089 13.3713 52.1267 37.7717 64.26C37.7717 74.2793 37.7717 87.8268 37.7717 87.9459V88.1171L37.8924 88.2139C43.9246 93.03 52.4301 95.5757 63.9155 96C75.3828 95.5757 83.8882 93.03 89.9084 88.2139L90.023 88.1171V64.6173C91.6698 63.8431 93.3045 63.0616 94.9091 62.2949V74.9268C94.8247 74.9789 94.7463 75.0236 94.6799 75.0757L94.6256 75.1204C94.5834 75.1576 94.5412 75.1874 94.517 75.2171C94.0827 75.5893 93.7811 76.1253 93.6424 76.7952C93.6303 76.8473 93.6243 76.8994 93.6182 76.9441C93.5459 77.3609 93.5459 77.7778 93.6243 78.1723C93.6303 78.217 93.6424 78.2542 93.6544 78.2989L93.8957 78.1946L93.6786 78.3956C93.6846 78.4254 93.6906 78.4626 93.7027 78.4924L93.7208 78.5594C93.8535 79.006 94.0706 79.4005 94.3542 79.6983L93.5519 88.668L93.4614 89.6282C93.4131 90.0748 93.3528 90.581 93.3407 91.035L93.3166 91.3254C93.2865 92.0027 93.4252 92.5387 93.7147 92.896C93.9862 93.3054 94.4024 93.5362 94.9695 93.5734L95.1021 93.5659C95.4279 93.6032 95.7657 93.5957 96.013 93.5882C96.2483 93.5957 96.6042 93.6032 96.9239 93.5659C96.9842 93.5659 97.0445 93.5659 97.1049 93.5734C97.4849 93.5734 97.8468 93.417 98.1243 93.1342C98.5043 92.8215 98.7095 92.3526 98.7456 91.7422C98.7637 91.5561 98.7577 91.3849 98.7396 91.2286L97.316 79.8323C97.8951 79.3186 98.2148 78.5147 98.2268 77.5396C98.2148 76.8101 98.0278 76.1774 97.69 75.701C97.4728 75.299 97.1169 75.0087 96.6524 74.8301L96.6826 73.1552C96.7489 69.2994 96.8395 64.0664 96.6283 61.4909C114.423 52.9679 114.411 52.4245 114.399 51.9778ZM66.5335 50.0053C65.1521 49.0376 62.5039 49.045 61.1889 50.0127C60.6158 50.437 60.3203 51.0176 60.3323 51.6801C60.3323 52.3426 60.646 52.9157 61.2372 53.34C62.5582 54.2854 65.1038 54.3226 66.4671 53.4443L92.5445 60.9252L63.6259 74.845L16.9002 51.2111L63.7948 33.1899L110.87 52.1044L95.4641 59.5184L67.4443 51.4791C67.3961 50.8911 67.0824 50.3849 66.5335 50.0053ZM39.5452 65.1458C43.424 67.0737 47.2786 68.9644 50.7169 70.6616C57.3705 73.9443 63.1192 76.7729 63.451 77.0334L63.6018 77.227L63.7707 77.0483C64.1266 76.7729 70.0563 73.9964 76.927 70.7733C80.4257 69.1356 84.3286 67.3045 88.2556 65.451V87.2388C72.994 95.9628 54.8128 95.9554 39.5513 87.2388V65.1458H39.5452Z" fill="#F8F8F8"/>
</svg>
