<svg width="129" height="128" viewBox="0 0 129 128" fill="none" xmlns="http://www.w3.org/2000/svg">
<path d="M78.5924 104.264C78.1792 103.871 36.07 105.024 36.1566 103.858C36.0634 102.692 78.1859 103.845 78.5924 103.452C79.1055 103.445 79.1321 104.278 78.5924 104.264Z" fill="#1E4F80"/>
<path fill-rule="evenodd" clip-rule="evenodd" d="M37.0166 103.858C37.2704 103.826 37.5842 103.797 37.9542 103.771C39.0908 103.691 40.7245 103.639 42.6947 103.608C46.6335 103.546 51.9001 103.568 57.1849 103.615C59.9528 103.639 62.734 103.67 65.3296 103.7C67.6792 103.726 69.8768 103.75 71.775 103.767C73.7775 103.784 75.4576 103.792 76.6502 103.784C77.2461 103.78 77.7228 103.771 78.0579 103.758C78.2249 103.751 78.3608 103.743 78.4601 103.733C78.5091 103.728 78.5549 103.722 78.5932 103.714C78.6049 103.711 78.6182 103.708 78.6321 103.704C78.6628 103.71 78.6815 103.725 78.6953 103.741C78.7184 103.768 78.7364 103.812 78.7372 103.865C78.7381 103.917 78.7216 103.957 78.7026 103.979C78.6919 103.992 78.6737 104.007 78.6357 104.013C78.6204 104.008 78.6057 104.005 78.5927 104.002C78.5544 103.994 78.5086 103.988 78.4595 103.983C78.36 103.973 78.224 103.965 78.0569 103.958C77.7215 103.945 77.2446 103.936 76.6485 103.932C75.4556 103.924 73.7755 103.932 71.7732 103.949C69.8748 103.965 67.6771 103.99 65.3275 104.016C62.7325 104.046 59.9521 104.077 57.1849 104.101C51.9009 104.148 46.6352 104.17 42.6965 104.108C40.7264 104.077 39.0927 104.025 37.9559 103.945C37.5852 103.919 37.2708 103.89 37.0166 103.858ZM78.463 103.229C78.4489 103.231 78.4311 103.233 78.4091 103.235C78.3252 103.244 78.2015 103.252 78.0376 103.258C77.7111 103.272 77.2413 103.28 76.6467 103.284C75.4583 103.292 73.7816 103.284 71.7793 103.267C69.8718 103.25 67.6786 103.226 65.3337 103.2C62.7438 103.171 59.9688 103.139 57.1893 103.115C51.9044 103.068 46.6324 103.046 42.6868 103.108C40.7148 103.139 39.0698 103.191 37.919 103.272C37.3451 103.313 36.8859 103.361 36.5683 103.42C36.4118 103.448 36.2751 103.482 36.173 103.525C36.1232 103.545 36.0643 103.575 36.0148 103.62C35.9664 103.664 35.9045 103.745 35.9065 103.859C35.9051 103.972 35.9673 104.053 36.0156 104.096C36.0651 104.141 36.1239 104.171 36.1737 104.192C36.2759 104.234 36.4127 104.268 36.5693 104.296C36.8872 104.355 37.3466 104.403 37.9206 104.444C39.0717 104.525 40.7167 104.577 42.6887 104.608C46.634 104.67 51.9052 104.648 57.1893 104.601C59.9681 104.577 62.7423 104.545 65.3316 104.516C67.6765 104.49 69.8698 104.466 71.7775 104.449C73.7796 104.432 75.4564 104.424 76.645 104.432C77.2398 104.436 77.7099 104.444 78.0366 104.458C78.2006 104.464 78.3245 104.472 78.4086 104.481C78.4313 104.483 78.4496 104.485 78.4639 104.487L78.4899 104.512L78.5862 104.514C78.7918 104.519 78.9648 104.441 79.0819 104.305C79.1937 104.175 79.2397 104.01 79.2372 103.856C79.2347 103.703 79.1836 103.542 79.0742 103.415C78.9603 103.282 78.7921 103.199 78.5891 103.202L78.4899 103.203L78.463 103.229Z" fill="#1E4F80"/>
<path d="M78.5924 97.6276C78.1793 97.2344 36.0701 98.3872 36.1567 97.221C36.0634 96.0548 78.1859 97.2077 78.5924 96.8145C79.1055 96.8079 79.1322 97.6342 78.5924 97.6276Z" fill="#1E4F80"/>
<path fill-rule="evenodd" clip-rule="evenodd" d="M37.0166 97.2209C37.2705 97.1893 37.5843 97.1604 37.9543 97.1342C39.0908 97.0539 40.7245 97.0018 42.6947 96.9708C46.6336 96.9088 51.9001 96.9312 57.1849 96.9779C59.9529 97.0023 62.734 97.0335 65.3296 97.0626C67.6793 97.0889 69.8769 97.1135 71.7751 97.1299C73.7775 97.1472 75.4576 97.1554 76.6502 97.1471C77.2462 97.1429 77.7229 97.1345 78.058 97.1209C78.225 97.1141 78.3608 97.1059 78.4601 97.0957C78.5092 97.0907 78.5549 97.0846 78.5933 97.0768C78.605 97.0744 78.6183 97.0713 78.6323 97.0675C78.6635 97.0734 78.6823 97.0878 78.6959 97.1034C78.7186 97.1297 78.7365 97.1733 78.7373 97.2251C78.7381 97.277 78.7218 97.3171 78.7024 97.3399C78.6911 97.3531 78.6721 97.369 78.6336 97.3751C78.6191 97.371 78.6051 97.3678 78.5928 97.3653C78.5544 97.3575 78.5086 97.3514 78.4595 97.3464C78.3601 97.3362 78.2241 97.328 78.057 97.3212C77.7215 97.3076 77.2447 97.2992 76.6486 97.295C75.4557 97.2866 73.7755 97.2949 71.7732 97.3122C69.8749 97.3286 67.6772 97.3532 65.3275 97.3795C62.7325 97.4086 59.9522 97.4398 57.1849 97.4642C51.901 97.5108 46.6352 97.5333 42.6966 97.4713C40.7265 97.4403 39.0927 97.3882 37.9559 97.3078C37.5852 97.2816 37.2708 97.2526 37.0166 97.2209ZM78.463 96.5919C78.449 96.5939 78.4312 96.596 78.4092 96.5983C78.3253 96.6069 78.2016 96.6146 78.0377 96.6213C77.7112 96.6346 77.2413 96.6429 76.6467 96.6471C75.4584 96.6554 73.7817 96.6472 71.7794 96.6299C69.8719 96.6135 67.6787 96.5889 65.3337 96.5626C62.7439 96.5336 59.9689 96.5024 57.1894 96.4779C51.9044 96.4313 46.6324 96.4087 42.6868 96.4709C40.7148 96.5019 39.0698 96.5541 37.919 96.6355C37.3452 96.6761 36.886 96.7244 36.5683 96.7827C36.4119 96.8114 36.2751 96.8451 36.173 96.8876C36.1233 96.9083 36.0644 96.938 36.0149 96.983C35.9664 97.027 35.9045 97.108 35.9066 97.2217C35.9052 97.3353 35.9674 97.4159 36.0156 97.4595C36.0651 97.5042 36.124 97.5339 36.1738 97.5546C36.276 97.597 36.4128 97.6306 36.5694 97.6594C36.8873 97.7177 37.3467 97.766 37.9207 97.8066C39.0718 97.8879 40.7168 97.9402 42.6887 97.9712C46.6341 98.0333 51.9052 98.0108 57.1894 97.9642C59.9681 97.9396 62.7424 97.9085 65.3317 97.8795C67.6766 97.8532 69.8699 97.8286 71.7775 97.8122C73.7797 97.7949 75.4564 97.7867 76.6451 97.795C77.2398 97.7992 77.7099 97.8075 78.0367 97.8208C78.2007 97.8275 78.3246 97.8352 78.4087 97.8438C78.4314 97.8461 78.4496 97.8484 78.464 97.8504L78.4912 97.8763L78.5894 97.8775C78.7942 97.8801 78.966 97.8008 79.0823 97.6649C79.1936 97.5348 79.2397 97.3701 79.2372 97.217C79.2347 97.0639 79.1834 96.9026 79.0738 96.776C78.9595 96.6441 78.7914 96.5619 78.5892 96.5646L78.49 96.5658L78.463 96.5919Z" fill="#1E4F80"/>
<path d="M53.643 100.739H36.5634C36.3369 100.739 36.157 100.559 36.157 100.333C36.157 100.106 36.3369 99.9263 36.5634 99.9263H53.643C54.1695 99.9196 54.1761 100.753 53.643 100.739Z" fill="#1E4F80"/>
<path fill-rule="evenodd" clip-rule="evenodd" d="M53.7507 100.216C53.7334 100.196 53.7052 100.176 53.6462 100.176L53.643 100.176H36.5634C36.475 100.176 36.407 100.244 36.407 100.333C36.407 100.421 36.4749 100.489 36.5634 100.489H53.6493C53.711 100.491 53.7379 100.471 53.7532 100.453C53.7736 100.43 53.7906 100.389 53.7904 100.336C53.7901 100.284 53.7728 100.241 53.7507 100.216ZM53.6402 100.989C53.8436 100.993 54.0144 100.915 54.1307 100.781C54.2426 100.652 54.291 100.488 54.2904 100.334C54.2897 100.181 54.2401 100.018 54.1294 99.8892C54.0144 99.7557 53.845 99.6742 53.6416 99.6763H53.643V99.9263L53.6399 99.6763C53.6404 99.6763 53.641 99.6763 53.6416 99.6763" fill="#1E4F80"/>
<path d="M75.5536 100.739H58.474C58.2475 100.739 58.0675 100.559 58.0675 100.333C58.0675 100.106 58.2475 99.9263 58.474 99.9263H75.5536C76.0734 99.9196 76.0867 100.753 75.5536 100.739Z" fill="#1E4F80"/>
<path fill-rule="evenodd" clip-rule="evenodd" d="M75.6581 100.215C75.6406 100.195 75.6131 100.176 75.5568 100.176L75.5536 100.176H58.474C58.3856 100.176 58.3175 100.244 58.3175 100.333C58.3175 100.421 58.3855 100.489 58.474 100.489H75.5599C75.6215 100.491 75.6476 100.471 75.6622 100.454C75.682 100.431 75.6989 100.39 75.6984 100.337C75.698 100.285 75.6804 100.241 75.6581 100.215ZM75.5508 100.989C75.7542 100.993 75.925 100.915 76.041 100.78C76.1524 100.651 76.1997 100.486 76.1984 100.333C76.1972 100.18 76.1473 100.018 76.0376 99.8896C75.9234 99.7566 75.755 99.6742 75.5522 99.6763H75.5536V99.9263L75.5504 99.6763C75.551 99.6763 75.5516 99.6763 75.5522 99.6763" fill="#1E4F80"/>
<path d="M97.2444 100.739H79.3652C79.1386 100.739 78.9587 100.559 78.9587 100.333C78.9587 100.106 79.1386 99.9263 79.3652 99.9263H97.2444C97.7709 99.9196 97.7775 100.753 97.2444 100.739Z" fill="#1E4F80"/>
<path fill-rule="evenodd" clip-rule="evenodd" d="M97.3521 100.216C97.3348 100.196 97.3066 100.176 97.2476 100.176L97.2444 100.176H79.3652C79.2767 100.176 79.2087 100.244 79.2087 100.333C79.2087 100.421 79.2767 100.489 79.3652 100.489H97.2507C97.3124 100.491 97.3393 100.471 97.3546 100.453C97.375 100.43 97.392 100.389 97.3918 100.336C97.3915 100.284 97.3742 100.241 97.3521 100.216ZM97.2416 100.989C97.445 100.993 97.6158 100.915 97.7321 100.781C97.844 100.652 97.8924 100.488 97.8918 100.334C97.8911 100.181 97.8415 100.018 97.7309 99.8892C97.6158 99.7557 97.4464 99.6742 97.243 99.6763H97.2444V99.9263L97.2413 99.6763C97.2418 99.6763 97.2424 99.6763 97.243 99.6763" fill="#1E4F80"/>
<path d="M97.3909 97.6273H84.0831C83.8565 97.6273 83.6766 97.4473 83.6766 97.2207C83.6766 96.9942 83.8565 96.8142 84.0831 96.8142H97.3843C97.9174 96.8076 97.924 97.6339 97.3909 97.6273Z" fill="#1E4F80"/>
<path fill-rule="evenodd" clip-rule="evenodd" d="M97.4975 97.1046C97.4798 97.0845 97.4499 97.0634 97.3874 97.0642L97.3843 97.0643L84.0831 97.0642C83.9946 97.0642 83.9266 97.1322 83.9266 97.2207C83.9266 97.3093 83.9946 97.3773 84.0831 97.3773H97.394C97.4565 97.378 97.4846 97.3571 97.5005 97.3387C97.5212 97.3148 97.5378 97.2738 97.5374 97.2228C97.537 97.1718 97.5197 97.1298 97.4975 97.1046ZM97.3895 97.8773C97.5928 97.8794 97.7631 97.7996 97.8789 97.6655C97.9903 97.5366 98.0386 97.3726 98.0374 97.2187C98.0361 97.0648 97.9851 96.9019 97.8728 96.7742C97.7563 96.6418 97.5861 96.5622 97.3828 96.5642H97.3843V96.8142L97.3811 96.5643C97.3817 96.5643 97.3823 96.5643 97.3828 96.5642" fill="#1E4F80"/>
<path d="M97.3909 104.151H84.0831C83.8565 104.151 83.6766 103.971 83.6766 103.745C83.6766 103.518 83.8565 103.338 84.0831 103.338H97.3843C97.9174 103.325 97.924 104.158 97.3909 104.151Z" fill="#1E4F80"/>
<path fill-rule="evenodd" clip-rule="evenodd" d="M97.4978 103.626C97.481 103.607 97.4523 103.587 97.3905 103.588L97.3843 103.588L84.0831 103.588C83.9946 103.588 83.9266 103.656 83.9266 103.745C83.9266 103.833 83.9946 103.901 84.0831 103.901H97.394C97.4557 103.902 97.4838 103.881 97.5 103.862C97.521 103.838 97.5378 103.796 97.5374 103.744C97.537 103.693 97.5195 103.651 97.4978 103.626ZM97.3895 104.401C97.5935 104.403 97.764 104.323 97.8795 104.188C97.9905 104.059 98.0386 103.894 98.0374 103.74C98.0362 103.586 97.9853 103.423 97.8725 103.295C97.7555 103.163 97.5847 103.084 97.3814 103.088H84.0831C83.7184 103.088 83.4266 103.38 83.4266 103.745C83.4266 104.109 83.7184 104.401 84.0831 104.401H97.3895Z" fill="#1E4F80"/>
<path d="M73.3016 108.929L70.9359 106.79L68.6568 108.929V100.673H73.3016V108.929Z" fill="#1E4F80"/>
<path fill-rule="evenodd" clip-rule="evenodd" d="M68.4068 100.423H73.5516V109.492L70.9391 107.13L68.4068 109.507V100.423ZM68.9068 100.923V108.352L70.9328 106.45L73.0516 108.366V100.923H68.9068Z" fill="#1E4F80"/>
<path d="M97.5712 105.977H39.6286C32.3383 105.844 32.3649 95.0217 39.6286 94.9018H97.5712C98.9573 94.9018 100.084 93.7756 100.084 92.3895C100.084 91.0034 98.9573 89.8772 97.5712 89.8772H39.6286C33.8043 89.8772 29.0663 94.6152 29.0663 100.439C29.0663 106.264 33.8043 111.002 39.6286 111.002H97.5712C100.89 110.942 100.85 106.03 97.5712 105.977ZM97.5712 109.676H39.6286C27.4803 109.456 27.5069 91.4166 39.6286 91.2033H97.5712C98.2243 91.2033 98.7574 91.7364 98.7574 92.3895C98.7574 93.0425 98.2243 93.5757 97.5712 93.5757H39.6286C35.8435 93.5757 32.7648 96.6544 32.7648 100.439C32.7648 104.225 35.8435 107.303 39.6286 107.303H97.5712C99.1439 107.317 99.1039 109.662 97.5712 109.676Z" fill="#1E4F80"/>
<path fill-rule="evenodd" clip-rule="evenodd" d="M28.8163 100.439C28.8163 94.4771 33.6663 89.6272 39.6286 89.6272H97.5712C99.0954 89.6272 100.334 90.8653 100.334 92.3895C100.334 93.9136 99.0954 95.1518 97.5712 95.1518H39.6306C37.8829 95.1811 36.5878 95.8514 35.7267 96.8294C34.8614 97.812 34.4224 99.1194 34.4208 100.435C34.4192 101.75 34.855 103.058 35.7194 104.042C36.5796 105.022 37.8763 105.695 39.6309 105.727H97.5753C98.4625 105.742 99.1474 106.087 99.6087 106.611C100.066 107.131 100.292 107.812 100.295 108.486C100.298 109.16 100.077 109.843 99.6203 110.364C99.1598 110.889 98.4721 111.235 97.5757 111.252L97.5712 111.252H39.6286C33.6663 111.252 28.8163 106.402 28.8163 100.439ZM39.6286 90.1272C33.9424 90.1272 29.3163 94.7533 29.3163 100.439C29.3163 106.126 33.9424 110.752 39.6286 110.752H97.5689C98.3307 110.737 98.8818 110.448 99.2443 110.034C99.611 109.616 99.7975 109.056 99.7952 108.488C99.7929 107.92 99.6018 107.36 99.2334 106.942C98.8692 106.528 98.3202 106.24 97.5691 106.227H39.624C37.7345 106.193 36.3015 105.463 35.3437 104.372C34.3896 103.286 33.9191 101.856 33.9208 100.434C33.9226 99.0123 34.3966 97.5833 35.3514 96.4989C36.31 95.4102 37.7414 94.6829 39.6245 94.6518L39.6286 94.6517L97.5712 94.6518C98.8192 94.6518 99.8335 93.6375 99.8335 92.3895C99.8335 91.1414 98.8192 90.1272 97.5712 90.1272H39.6286ZM39.6286 90.9533H97.5712C98.3623 90.9533 99.0074 91.5983 99.0074 92.3895C99.0074 93.1806 98.3623 93.8257 97.5712 93.8257H39.6286C35.9816 93.8257 33.0148 96.7924 33.0148 100.439C33.0148 104.086 35.9816 107.053 39.6286 107.053H97.5733C98.034 107.057 98.3956 107.235 98.6387 107.513C98.8776 107.788 98.9886 108.144 98.9857 108.492C98.9828 108.839 98.8658 109.194 98.6269 109.466C98.384 109.743 98.0259 109.922 97.5734 109.926L97.5712 109.926H39.6241C36.5201 109.869 34.1762 108.672 32.6111 106.892C31.0498 105.115 30.2757 102.772 30.2774 100.437C30.2791 98.1015 31.0567 95.759 32.6187 93.9835C34.1846 92.2037 36.5267 91.0078 39.6242 90.9533L39.6286 90.9533ZM39.6308 91.4533C36.6686 91.506 34.4625 92.6448 32.9941 94.3138C31.5216 95.9875 30.779 98.2085 30.7774 100.437C30.7757 102.666 31.5151 104.887 32.9867 106.561C34.4542 108.231 36.6618 109.371 39.6309 109.426H97.5701C97.8833 109.423 98.1046 109.303 98.251 109.136C98.4016 108.965 98.4837 108.73 98.4857 108.487C98.4878 108.245 98.4097 108.012 98.2617 107.842C98.118 107.677 97.8953 107.556 97.5702 107.553H39.6286C35.7054 107.553 32.5148 104.363 32.5148 100.439C32.5148 96.5163 35.7054 93.3257 39.6286 93.3257H97.5712C98.0862 93.3257 98.5074 92.9045 98.5074 92.3895C98.5074 91.8745 98.0862 91.4533 97.5712 91.4533H39.6308Z" fill="#1E4F80"/>
<path d="M70.6559 35.7396C71.0557 35.0799 70.1161 34.1069 69.3964 34.3668C68.7767 34.5334 67.917 34.5334 67.2773 34.74C65.2381 35.1732 65.1448 36.8392 67.2306 36.9324C68.3635 36.9258 70.1494 36.5059 70.6559 35.7396ZM66.6509 35.9462C66.6442 35.9395 66.6375 35.9395 66.6375 35.9329C66.9308 35.7063 68.0503 35.3931 68.63 35.3664C69.0032 35.3997 69.6563 35.0199 69.8229 35.3331C69.2498 35.9129 67.2906 36.2394 66.6509 35.9462Z" fill="#1E4F80"/>
<path fill-rule="evenodd" clip-rule="evenodd" d="M70.6284 34.5373C70.9393 34.869 71.1536 35.4006 70.8697 35.8691L70.8646 35.8774L70.8644 35.8773C70.7082 36.1138 70.4652 36.3074 70.1908 36.465C69.9141 36.624 69.5898 36.7551 69.2521 36.8596C68.5778 37.0683 67.8238 37.1788 67.2321 37.1823L67.2195 37.1824L67.2195 37.1821C66.6686 37.1574 66.2323 37.0282 65.9283 36.8164C65.6191 36.601 65.4449 36.2955 65.4573 35.9545C65.4693 35.6219 65.6569 35.309 65.9566 35.0598C66.2554 34.8114 66.6793 34.613 67.2129 34.498C67.5556 34.3891 67.9481 34.336 68.3133 34.2903C68.3448 34.2863 68.3761 34.2824 68.4072 34.2785C68.7473 34.2362 69.0592 34.1974 69.3223 34.1277C69.8092 33.9583 70.3185 34.2068 70.6284 34.5373ZM70.2636 34.8792C70.0259 34.6257 69.7109 34.519 69.4813 34.6019L69.4715 34.6054L69.4613 34.6081C69.1606 34.689 68.8099 34.7325 68.475 34.774C68.4417 34.7781 68.4084 34.7822 68.3754 34.7864C68.0003 34.8334 67.6482 34.8828 67.3541 34.9778L67.3419 34.9818L67.3292 34.9844C66.8491 35.0864 66.5009 35.2576 66.2762 35.4443C66.0502 35.6323 65.9624 35.8229 65.957 35.9726C65.9518 36.1139 66.018 36.2695 66.2142 36.4062C66.4148 36.546 66.7469 36.6596 67.2355 36.6823C67.7759 36.6783 68.4781 36.5757 69.1042 36.382C69.4179 36.2849 69.7059 36.167 69.9418 36.0314C70.1778 35.8959 70.347 35.7512 70.4444 35.6059C70.5572 35.4147 70.5007 35.1322 70.2636 34.8792ZM68.627 35.6168C68.3838 35.63 68.026 35.6982 67.6772 35.7922C67.8509 35.7786 68.0337 35.7545 68.2168 35.721C68.3705 35.6928 68.5228 35.6583 68.6686 35.6183C68.6547 35.6181 68.6408 35.6176 68.627 35.6168ZM69.6433 34.962C69.7878 34.9762 69.9506 35.0408 70.0436 35.2156L70.13 35.3779L70.0007 35.5087C69.8213 35.6901 69.5537 35.8348 69.2667 35.9473C68.9747 36.0619 68.6401 36.1518 68.3069 36.2128C67.9737 36.2738 67.6352 36.3072 67.3344 36.3055C67.0412 36.3039 66.7557 36.2691 66.5467 36.1733L66.5059 36.1546L66.4877 36.1365C66.4734 36.1254 66.4527 36.1069 66.434 36.0803C66.4011 36.0333 66.3876 35.9808 66.3876 35.9327V35.81L66.4847 35.7349C66.5873 35.6557 66.7398 35.5832 66.8988 35.52C67.0639 35.4545 67.2578 35.3907 67.4583 35.334C67.8553 35.2218 68.3011 35.1312 68.6186 35.1166L68.6355 35.1158L68.6523 35.1173C68.7044 35.122 68.783 35.1124 68.8958 35.0871C68.9498 35.0751 69.0058 35.0608 69.0659 35.0455L69.068 35.045C69.1261 35.0302 69.1882 35.0144 69.2493 35.0007C69.3676 34.9742 69.5101 34.9488 69.6433 34.962ZM66.5125 36.1534C66.5127 36.1536 66.5126 36.1535 66.5123 36.1533Z" fill="#1E4F80"/>
<path d="M69.7698 36.5859C69.6632 36.5726 69.5632 36.5992 69.4766 36.6592C67.8906 37.7454 68.0372 38.1319 68.1105 38.3385C68.1838 38.5317 68.3771 38.745 68.8968 38.685C69.6698 38.5917 69.9497 38.8183 70.6294 38.8316C73.175 38.685 71.2958 36.6525 69.7698 36.5859ZM69.3966 37.7987C69.5299 37.6921 69.6765 37.5788 69.8298 37.4655C70.2629 37.5522 70.6494 37.7721 70.856 37.9453C70.3096 38.0186 69.9831 37.812 69.3966 37.7987Z" fill="#1E4F80"/>
<path fill-rule="evenodd" clip-rule="evenodd" d="M69.79 36.3366C69.6234 36.3184 69.4661 36.3624 69.3343 36.4537L69.4766 36.6592L69.3353 36.4529C68.5362 37.0002 68.1377 37.3939 67.956 37.7016C67.8617 37.8614 67.8212 38.0056 67.82 38.1395C67.8189 38.2651 67.8537 38.3626 67.8725 38.4154C67.8733 38.4177 67.8741 38.4199 67.8749 38.4221L67.8748 38.4221L67.8767 38.4272C67.9289 38.5647 68.0283 38.7187 68.2122 38.8238C68.3938 38.9276 68.6297 38.9675 68.9255 38.9334L68.9255 38.9334L68.9268 38.9332C69.2803 38.8905 69.5167 38.9204 69.7525 38.9641C69.7933 38.9717 69.8349 38.9799 69.8776 38.9883C70.0853 39.0292 70.3209 39.0756 70.6245 39.0816L70.6342 39.0818L70.6438 39.0812C71.2945 39.0437 71.7558 38.8843 71.9842 38.5775C72.2334 38.2427 72.1322 37.8489 71.937 37.544C71.7386 37.2339 71.4059 36.9438 71.0307 36.7277C70.657 36.5124 70.2182 36.3572 69.79 36.3366ZM69.7388 36.834C69.6962 36.8286 69.6574 36.8381 69.6189 36.8648L69.6179 36.8655L69.6179 36.8655C68.8309 37.4044 68.5098 37.7471 68.3866 37.9558C68.3285 38.0543 68.3203 38.1133 68.32 38.1439C68.3197 38.1767 68.3272 38.2016 68.3451 38.2521C68.3663 38.3068 68.4001 38.3553 68.4603 38.3897C68.5235 38.4258 68.644 38.4624 68.8675 38.4367C69.2867 38.3862 69.5765 38.423 69.8437 38.4725C69.8919 38.4815 69.9384 38.4906 69.9841 38.4995C70.1865 38.5391 70.3732 38.5757 70.6247 38.5815C71.2398 38.5447 71.496 38.396 71.5831 38.279C71.6498 38.1894 71.6631 38.0434 71.5159 37.8136C71.3721 37.5888 71.1078 37.3491 70.7811 37.1609C70.4555 36.9733 70.0908 36.8501 69.7589 36.8357L69.7488 36.8352L69.7388 36.834ZM69.7702 37.1987L69.8788 37.2204C70.3571 37.316 70.7813 37.5563 71.0167 37.7538L71.4507 38.1178L70.8893 38.1931C70.575 38.2353 70.3246 38.1956 70.0928 38.1498C70.0603 38.1433 70.0283 38.1368 69.9967 38.1304C69.8021 38.0909 69.62 38.0539 69.3909 38.0487L68.7035 38.033L69.2405 37.6035C69.376 37.495 69.5251 37.3798 69.6812 37.2645L69.7702 37.1987Z" fill="#1E4F80"/>
<path d="M73.4347 37.4723C73.0216 37.1191 72.1886 37.5323 71.942 37.9921C71.7754 38.5919 72.3951 39.4715 73.2814 39.4382C74.7008 39.3582 73.6813 37.6323 73.4347 37.4723ZM72.855 38.292C72.8883 38.2787 72.9216 38.2653 72.9549 38.252C73.0282 38.3586 73.0882 38.4719 73.1215 38.5586C73.0015 38.5452 72.9616 38.4719 72.855 38.292Z" fill="#1E4F80"/>
<path fill-rule="evenodd" clip-rule="evenodd" d="M73.5865 37.2735C73.2745 37.0161 72.8516 37.0676 72.5328 37.1955C72.2025 37.328 71.8794 37.58 71.7217 37.8741L71.7086 37.8986L71.7011 37.9254C71.5892 38.3283 71.7455 38.7812 72.0257 39.1138C72.3118 39.4534 72.7585 39.7082 73.2908 39.6882L73.2955 39.6879C73.7024 39.665 73.9999 39.5174 74.156 39.2438C74.3023 38.9874 74.286 38.6832 74.2262 38.4283C74.1648 38.1666 74.0469 37.91 73.9304 37.7101C73.8717 37.6093 73.8111 37.519 73.7545 37.4462C73.7076 37.3858 73.6491 37.3185 73.5865 37.2735ZM72.1764 38.0858C72.1347 38.2813 72.2077 38.5538 72.4081 38.7917C72.6113 39.0329 72.9167 39.2011 73.2697 39.1886C73.5707 39.1712 73.6776 39.0733 73.7217 38.996C73.7757 38.9014 73.7879 38.7491 73.7394 38.5425C73.6925 38.3427 73.598 38.1329 73.4984 37.9617C73.449 37.8769 73.4006 37.8056 73.3598 37.753C73.3266 37.7104 73.3062 37.6903 73.2997 37.6839C73.2971 37.6813 73.2967 37.681 73.2987 37.6822L73.2848 37.6733L73.2723 37.6625C73.1721 37.5769 72.9779 37.5557 72.719 37.6595C72.4802 37.7553 72.2726 37.9268 72.1764 38.0858ZM73.0477 37.9458L73.1609 38.1105C73.2433 38.2304 73.3133 38.361 73.3548 38.469L73.5024 38.8526L73.0939 38.8072C72.9714 38.7936 72.8757 38.742 72.7976 38.6553C72.7437 38.5956 72.696 38.5148 72.6531 38.4419C72.6486 38.4344 72.6442 38.4269 72.6399 38.4196L72.4911 38.1685L73.0477 37.9458Z" fill="#1E4F80"/>
<path d="M87.5487 58.0638C91.1805 53.5524 93.3463 47.868 93.1331 41.9239C92.8598 19.893 67.1238 10.0304 51.8702 22.4053C50.5774 20.9925 47.8052 18.3803 47.7585 18.2737C45.3729 15.968 41.881 19.4598 44.1867 21.8455C44.2134 21.8588 44.3999 22.0388 44.6865 22.332C28.3533 40.8976 40.9281 71.1184 65.4446 72.791V85.5791H54.0293C53.6628 85.5791 53.3695 85.8789 53.3695 86.2388V90.1038C53.3695 90.4704 53.6694 90.7636 54.0293 90.7636H81.5045C81.8711 90.7636 82.1643 90.4637 82.1643 90.1038V86.2388C82.1643 85.8723 81.8644 85.5791 81.5045 85.5791H70.0893V72.7844C76.5399 72.3246 82.884 69.6923 87.8286 65.4341C88.0418 65.6606 88.2617 65.8939 88.495 66.1538C88.9881 66.6469 89.6345 66.8935 90.2809 66.8935C92.4467 66.9734 93.6728 64.0813 92.0668 62.5819L87.5487 58.0638ZM88.435 54.5653C80.1118 69.639 56.6215 70.1721 47.6386 55.4649C40.3483 44.6627 43.7535 30.9284 52.7232 23.5248C53.1496 23.5115 53.6961 23.6048 54.1026 24.0579C54.5624 24.5777 54.2292 25.5107 53.8693 26.4969C53.5095 27.3832 53.4096 28.1096 53.1963 29.0425C52.2634 32.5611 52.6232 34.5736 55.7419 36.3462C55.6886 38.0854 57.128 38.392 59.0072 38.6785C60.1934 38.8918 60.5999 38.9651 61.033 39.5382C61.926 40.7377 63.3121 42.8102 64.9314 42.4703C64.9581 42.9834 64.5049 43.903 64.425 44.4161C64.265 45.7289 64.1517 50.8535 67.0905 50.8402C67.6769 50.9534 67.7702 51.0068 67.7836 51.1334C67.8169 51.4199 67.7569 51.893 67.6903 52.4328C67.3438 54.0655 67.517 56.6911 68.7898 58.0505C70.5091 60.2629 68.1301 63.5615 72.2084 64.2546C73.2013 64.2546 74.3275 63.5549 74.5874 63.3816C75.0072 63.1217 74.674 62.4353 74.2142 62.6086C73.901 62.7085 73.2813 62.8285 72.9547 62.6086C72.9014 62.5686 72.7348 62.462 72.7015 62.0621C72.6615 61.4624 72.4883 60.9893 72.3483 60.6094C72.0951 59.9164 72.0218 59.7098 72.7482 59.2033C76.6732 56.911 72.8681 55.4249 75.6603 54.2721C77.3196 53.6723 78.1526 54.2721 78.5991 51.7531C78.8257 50.6269 78.5991 49.9272 78.4325 49.4141C77.5529 47.6881 81.3979 46.7618 81.2513 45.549C81.0381 44.836 79.652 45.0625 79.0655 44.4361C77.7794 43.25 76.3667 44.716 75.0406 44.5294C75.0206 44.5161 75.0072 44.5094 74.9939 44.4695C74.6141 43.4965 74.6274 41.7639 74.1876 41.5507C74.021 41.4707 72.6815 40.8843 71.9219 41.444C71.5553 40.8443 70.8156 39.6115 69.0097 39.998L66.5374 39.6581C66.4241 39.6448 66.3109 39.6715 66.2242 39.7381C65.6844 40.1379 64.6982 40.6377 64.2784 40.4578C63.6853 39.8181 64.2117 38.4786 62.819 37.9455C63.3921 36.3595 62.1326 36.0463 60.2134 36.7393C59.2338 36.3795 58.6341 36.1129 59.7802 35.3532C62.1126 33.7606 63.0655 33.7073 64.0384 35.1267C64.4783 35.7664 64.8181 36.1196 65.2446 36.0263C66.1309 35.6998 65.8111 34.0338 66.2975 33.2008C66.9373 31.7081 67.4237 31.4149 68.33 30.8485C69.3829 30.1687 69.6428 28.7093 71.2021 28.8293C72.6682 28.9226 72.7615 27.6764 72.8082 27.01C72.8481 26.4503 72.8948 26.2903 73.0081 26.277C74.0343 26.177 74.9472 24.811 74.9472 23.8114C74.9206 22.6785 74.2009 22.9784 73.5878 22.4986C75.2471 22.9917 74.9939 22.0787 75.8136 21.2991C76.2201 21.4324 76.9464 21.8722 77.3596 22.0454C77.4462 22.2387 77.5529 22.8118 77.6062 23.4049C76.7732 23.9646 74.4541 25.5107 75.8202 26.7502C77.193 27.7964 78.4658 26.6702 79.5653 26.2504C82.3775 25.404 82.4642 27.03 84.9698 26.3103C85.0897 26.337 85.283 26.2437 85.4696 26.0971C92.1268 33.594 94.2793 45.0426 88.435 54.5653ZM77.7261 21.2791C76.2467 20.5594 75.4204 19.7331 74.4141 21.7522C73.208 21.8722 73.9077 20.9459 73.6611 20.3928C73.2413 19.8064 72.1818 18.5002 71.3488 19C70.6957 19.3865 69.9893 20.4528 69.4095 21.0325C68.3766 21.6589 66.5774 21.7855 65.5045 22.7385C63.7452 24.2645 66.3309 24.3911 67.2305 25.1375C68.5033 26.6369 69.6894 25.0442 71.1622 23.7447C73.148 22.0055 72.295 23.2716 73.9543 23.6248C74.021 23.6315 74.0676 23.6381 74.0676 23.8247C73.6544 26.2837 71.9952 24.5644 71.9352 26.9567C71.8686 27.8497 71.7686 28.003 71.2488 27.9696C69.2629 27.8564 68.9231 29.2691 67.8635 30.1221C66.4175 30.7085 65.1047 33.0342 64.9847 34.9667C63.4587 32.3878 61.3529 33.1275 59.2871 34.6469C58.5274 35.1666 58.1875 35.7064 58.2875 36.2529C58.4608 37.1858 59.8469 37.559 60.1201 37.6256C60.2 37.6456 60.2867 37.639 60.36 37.6123C61.6461 37.1725 62.026 37.2658 62.0993 37.2991C62.1126 37.4257 61.9593 37.7856 61.7261 38.0988C61.4662 38.4186 61.826 38.9118 62.2125 38.7718C62.2192 38.7718 62.4458 38.6985 62.6524 38.8318C62.9056 38.9917 63.0789 39.4182 63.1455 40.0313C63.3521 42.1904 65.7444 41.2042 66.5841 40.5511L68.9631 40.8776C70.1959 40.5711 70.829 41.2175 71.1688 41.8972C71.4287 42.417 71.9419 42.8035 72.3883 42.1971C72.5283 41.9905 73.1347 42.0905 73.6078 42.2637C74.1276 44.8493 73.9277 46.2887 77.3863 44.9093C78.4658 44.5828 78.8523 45.7223 80.0651 45.8356C75.7669 48.9076 78.1126 48.4278 77.7394 51.5932C77.4129 52.7194 77.6528 52.9326 76.6665 53.1192C74.2475 53.4724 73.2346 54.7719 73.8011 56.6044C74.1543 58.0838 70.2692 58.6036 71.5287 60.916C71.8352 61.5557 71.8019 63.1084 72.5083 63.3683C72.1284 63.4549 71.9019 63.355 71.6087 63.2084C70.869 62.8618 70.3825 62.6286 70.3825 60.5961C70.3625 56.5978 67.6636 57.544 68.5499 52.5528C69.203 48.921 66.9639 50.9201 65.831 49.1808C65.1646 47.7414 65.1846 45.1558 65.2846 44.5694C65.5312 43.5765 66.4841 41.7306 64.9248 41.6173C63.7053 41.9572 62.4724 39.9913 61.7261 39.0317C60.9131 37.8589 59.3337 37.9522 57.881 37.5923C55.6953 37.1725 57.4812 36.1063 55.7086 35.2666C52.7165 33.7339 53.6828 30.8951 54.2825 28.1296C54.8023 26.197 56.255 23.6114 53.6627 22.7984C57.5545 19.8997 62.3792 18.1471 67.7636 18.227C74.6141 18.1137 80.5916 20.9925 84.8765 25.4707C82.4775 26.1304 82.3842 24.5177 79.3188 25.444C78.3991 25.7572 77.0931 26.8101 76.3534 26.1038C75.9469 25.564 77.5262 24.5244 78.2726 24.0379C78.4125 23.958 78.4924 23.798 78.4858 23.6381C78.3458 21.4857 77.906 21.3457 77.7261 21.2791ZM73.0481 22.0987C72.0685 21.1925 69.3229 24.5111 68.4566 24.8909C68.3633 24.9176 68.27 24.9109 67.8036 24.4911C67.1971 23.958 66.5241 23.8247 65.8844 23.5648C66.8839 22.5053 69.0231 22.4786 70.0227 21.6456C70.5491 21.1258 71.2222 20.1262 71.7686 19.7597C71.9618 19.793 72.4483 20.2395 72.8348 20.746C72.7748 21.0658 72.7215 21.6523 73.0481 22.0987ZM45.966 18.8534C46.6923 18.6135 50.2442 22.7985 50.8639 23.2649C50.2775 23.7914 49.7111 24.3578 49.1646 24.9576L46.1193 21.9122L45.5661 21.359L45.113 20.9059C44.36 20.1862 44.933 18.8201 45.966 18.8534ZM80.8315 86.8985V89.4374H54.6823V86.8985H80.8315ZM66.764 85.5058V73.3042H68.7498V85.5058H66.764ZM83.8836 66.7335C57.6545 83.6399 26.7606 53.3591 43.0405 26.7968C43.8068 25.564 44.6798 24.3911 45.6261 23.2916C46.4924 24.1779 47.5653 25.2641 48.305 25.9438C47.5653 26.8368 46.8723 27.803 46.2259 28.8426C35.5769 45.2625 48.225 68.033 67.8036 67.6598C73.8144 67.7864 79.5254 65.4807 84.0035 61.6956C84.39 62.2487 85.3563 62.9685 86.889 64.4745C85.936 65.2942 84.9365 66.0472 83.8836 66.7335ZM91.1205 65.2075C90.6741 65.674 89.8677 65.674 89.4213 65.2075L85.343 61.1225L87.0422 59.4233L91.1205 63.5016C91.587 63.9547 91.587 64.761 91.1205 65.2075Z" fill="#1E4F80"/>
</svg>
